<svg width="48" height="48" viewBox="0 0 48 48" fill="none" xmlns="http://www.w3.org/2000/svg">
<path d="M26.1413 4.5L26.8913 3H17.3213L18.0713 4.5H26.1413Z" fill="url(#paint0_linear_3127_1010)"/>
<path d="M36.3562 14.25H31.6387C31.2344 14.2512 30.8378 14.3603 30.4897 14.566C30.1416 14.7716 29.8548 15.0665 29.6587 15.42C29.4839 15.7533 29.3913 16.1236 29.3887 16.5V21.2175C29.3904 21.8137 29.628 22.385 30.0496 22.8066C30.4712 23.2281 31.0425 23.4657 31.6387 23.4675H36.3562C36.9527 23.4669 37.5246 23.2296 37.9464 22.8078C38.3683 22.386 38.6055 21.814 38.6062 21.2175V16.5C38.6044 15.9038 38.3668 15.3325 37.9452 14.9109C37.5237 14.4894 36.9524 14.2517 36.3562 14.25Z" fill="url(#paint1_linear_3127_1010)"/>
<path d="M37.4362 24.8032C37.1026 24.6289 36.7325 24.5364 36.3562 24.5332H31.6387C31.043 24.5368 30.4728 24.775 30.0516 25.1962C29.6305 25.6174 29.3923 26.1876 29.3887 26.7832V31.5007C29.3912 32.008 29.5641 32.4997 29.8796 32.8969C30.1952 33.2941 30.6351 33.5737 31.1287 33.6907C31.1339 33.8016 36.143 33.734 36.3562 33.7508C36.9524 33.7491 37.5237 33.5114 37.9452 33.0899C38.3668 32.6683 38.6044 32.097 38.6062 31.5008V26.7832C38.605 26.379 38.4959 25.9823 38.2902 25.6343C38.0846 25.2862 37.7897 24.9993 37.4362 24.8032Z" fill="url(#paint2_linear_3127_1010)"/>
<path d="M28.8561 34.005C28.5073 34.3984 28.0788 34.7128 27.599 34.9275C27.1192 35.1422 26.5992 35.2521 26.0736 35.25H21.3561C20.3616 35.2497 19.408 34.8545 18.7048 34.1513C18.0016 33.4481 17.6064 32.4945 17.6061 31.5V26.7826C17.604 26.2569 17.7139 25.7369 17.9286 25.2571C18.1433 24.7773 18.4577 24.3488 18.8511 24.0001C18.4578 23.6513 18.1433 23.2228 17.9286 22.743C17.7139 22.2632 17.604 21.7432 17.6061 21.2176V16.5001C17.6064 15.5056 18.0016 14.552 18.7048 13.8488C19.408 13.1456 20.3616 12.7504 21.3561 12.7501H26.0736C26.5992 12.748 27.1192 12.8579 27.599 13.0726C28.0788 13.2873 28.5073 13.6017 28.8561 13.9951C29.2048 13.6018 29.6333 13.2873 30.1131 13.0726C30.5929 12.8579 31.1129 12.748 31.6386 12.7501H34.8186V6.00005C34.8187 5.60606 34.7411 5.2159 34.5904 4.85187C34.4397 4.48785 34.2187 4.15709 33.9401 3.87849C33.6615 3.5999 33.3308 3.37892 32.9667 3.2282C32.6027 3.07747 32.2125 2.99995 31.8186 3.00005H28.5711L27.8211 4.50005L27.2736 5.58755C27.2121 5.71189 27.1169 5.81648 26.9989 5.8894C26.8809 5.96233 26.7448 6.00066 26.6061 6.00005H17.6061C17.4673 6.00066 17.3312 5.96233 17.2132 5.8894C17.0952 5.81648 17.0001 5.71189 16.9386 5.58755C16.6251 4.9531 15.9678 3.63755 15.6486 3L12.3936 3.00005C11.9996 2.99995 11.6094 3.07747 11.2454 3.2282C10.8814 3.37892 10.5506 3.5999 10.272 3.87849C9.9934 4.15709 9.77242 4.48785 9.6217 4.85187C9.47097 5.2159 9.39345 5.60606 9.39355 6.00005V42C9.39346 42.394 9.47099 42.7842 9.62172 43.1482C9.77244 43.5122 9.99342 43.843 10.272 44.1216C10.5506 44.4002 10.8814 44.6212 11.2454 44.7719C11.6094 44.9226 11.9996 45.0001 12.3936 45H31.8186C32.2125 45.0001 32.6027 44.9226 32.9667 44.7719C33.3307 44.6212 33.6615 44.4002 33.9401 44.1216C34.2187 43.843 34.4397 43.5122 34.5904 43.1482C34.7411 42.7842 34.8187 42.394 34.8186 42V35.25H31.6386C31.1129 35.2521 30.5929 35.1422 30.1131 34.9275C29.6333 34.7128 29.2048 34.3984 28.8561 34.005ZM25.1061 42H19.1061C18.9091 41.9971 18.7211 41.9168 18.5829 41.7765C18.4446 41.6361 18.3671 41.447 18.3671 41.25C18.3671 41.053 18.4446 40.8639 18.5829 40.7236C18.7212 40.5833 18.9091 40.503 19.1061 40.5H25.1061C25.303 40.503 25.491 40.5833 25.6292 40.7236C25.7675 40.8639 25.845 41.053 25.845 41.25C25.845 41.4471 25.7675 41.6362 25.6292 41.7765C25.491 41.9168 25.303 41.9971 25.1061 42Z" fill="url(#paint3_linear_3127_1010)"/>
<path d="M20.8839 23.415C20.9524 23.5151 25.8504 23.4508 26.0739 23.4675C26.4789 23.4653 26.876 23.355 27.2241 23.148C27.5722 22.941 27.8587 22.6448 28.0539 22.29C28.228 21.959 28.3205 21.5914 28.3239 21.2175V16.5C28.3192 15.9047 28.0806 15.3352 27.6597 14.9142C27.2387 14.4933 26.6692 14.2547 26.0739 14.25H21.3564C20.7602 14.2517 20.189 14.4894 19.7674 14.9109C19.3458 15.3325 19.1082 15.9038 19.1064 16.5V21.2175C19.1092 21.7312 19.2867 22.2286 19.6098 22.628C19.9328 23.0274 20.3822 23.3049 20.8839 23.415Z" fill="url(#paint4_linear_3127_1010)"/>
<path d="M19.1065 31.5007C19.1082 32.0969 19.3458 32.6682 19.7674 33.0898C20.189 33.5113 20.7603 33.749 21.3565 33.7507H26.074C26.5163 33.749 26.9484 33.6173 27.3165 33.372C27.6845 33.1266 27.9723 32.7784 28.144 32.3707C28.492 31.8858 28.262 27.4114 28.324 26.7832C28.3202 26.1876 28.0819 25.6175 27.6608 25.1964C27.2396 24.7753 26.6695 24.537 26.0739 24.5332H21.3564C20.7612 24.538 20.1916 24.7765 19.7707 25.1975C19.3498 25.6184 19.1112 26.1879 19.1064 26.7832L19.1065 31.5007Z" fill="url(#paint5_linear_3127_1010)"/>
<defs>
<linearGradient id="paint0_linear_3127_1010" x1="22.1063" y1="3" x2="22.1063" y2="4.5" gradientUnits="userSpaceOnUse">
<stop stop-color="#D6D6D6"/>
<stop offset="1" stop-color="#818181"/>
</linearGradient>
<linearGradient id="paint1_linear_3127_1010" x1="33.9974" y1="14.25" x2="33.9974" y2="23.4675" gradientUnits="userSpaceOnUse">
<stop stop-color="#D6D6D6"/>
<stop offset="1" stop-color="#818181"/>
</linearGradient>
<linearGradient id="paint2_linear_3127_1010" x1="33.9974" y1="24.5332" x2="33.9974" y2="33.7561" gradientUnits="userSpaceOnUse">
<stop stop-color="#D6D6D6"/>
<stop offset="1" stop-color="#818181"/>
</linearGradient>
<linearGradient id="paint3_linear_3127_1010" x1="22.1061" y1="3" x2="22.1061" y2="45" gradientUnits="userSpaceOnUse">
<stop stop-color="#D6D6D6"/>
<stop offset="1" stop-color="#818181"/>
</linearGradient>
<linearGradient id="paint4_linear_3127_1010" x1="23.7152" y1="14.25" x2="23.7152" y2="23.4727" gradientUnits="userSpaceOnUse">
<stop stop-color="#D6D6D6"/>
<stop offset="1" stop-color="#818181"/>
</linearGradient>
<linearGradient id="paint5_linear_3127_1010" x1="23.7242" y1="24.5332" x2="23.7242" y2="33.7507" gradientUnits="userSpaceOnUse">
<stop stop-color="#D6D6D6"/>
<stop offset="1" stop-color="#818181"/>
</linearGradient>
</defs>
</svg>
