<svg width="40" height="40" viewBox="0 0 40 40" fill="none" xmlns="http://www.w3.org/2000/svg">
<g clip-path="url(#clip0_3127_986)">
<path d="M35.0945 19.8219H4.90312V12.3633H35.0945V19.8219ZM26.0211 27.2008H28.8844V24.8625H26.0211V27.2008ZM11.1148 27.2008H24.732V24.8625H11.1148V27.2008ZM0 9.37187H40V35.9156C40 37.4484 38.7469 38.7016 37.2141 38.7016H2.78594C1.25391 38.7016 0 37.4477 0 35.9156L0 9.37187ZM30.1758 24.218C30.1758 23.8617 29.8859 23.5734 29.5289 23.5734H10.4688C10.1125 23.5734 9.82422 23.8617 9.82422 24.218V27.8477C9.82422 28.2023 10.1125 28.4922 10.4688 28.4922H29.5297C29.8859 28.4922 30.1766 28.2023 30.1766 27.8477V24.218H30.1758ZM36.3859 35.0648C36.3859 34.7086 36.0961 34.418 35.7391 34.418H31.5047C31.15 34.418 30.8602 34.7078 30.8602 35.0648C30.8602 35.4211 31.15 35.7094 31.5047 35.7094H35.7391C36.0953 35.7094 36.3859 35.4211 36.3859 35.0648ZM36.3859 31.5969C36.3859 31.2406 36.0961 30.9523 35.7391 30.9523H31.5047C31.15 30.9523 30.8602 31.2398 30.8602 31.5969C30.8602 31.9531 31.15 32.2414 31.5047 32.2414H35.7391C36.0953 32.2414 36.3859 31.9531 36.3859 31.5969ZM3.61406 20.4664C3.61406 20.8227 3.90156 21.1133 4.25859 21.1133H35.7383C36.0945 21.1133 36.3852 20.8234 36.3852 20.4664V11.7164C36.3852 11.3602 36.0953 11.0719 35.7383 11.0719H4.25859C3.90234 11.0719 3.61406 11.3602 3.61406 11.7164V20.4664ZM3.61406 31.5969C3.61406 31.9531 3.90156 32.2414 4.25859 32.2414H24.1672C24.5234 32.2414 24.8117 31.9531 24.8117 31.5969C24.8117 31.2406 24.5234 30.9523 24.1672 30.9523H4.25859C3.90234 30.9523 3.61406 31.2406 3.61406 31.5969ZM3.61406 35.0648C3.61406 35.4211 3.90156 35.7094 4.25859 35.7094H24.1672C24.5234 35.7094 24.8117 35.4211 24.8117 35.0648C24.8117 34.7086 24.5234 34.418 24.1672 34.418H4.25859C3.90234 34.418 3.61406 34.7086 3.61406 35.0648ZM40 4.08281V8.08047H0V4.08281C0 2.55234 1.25312 1.29688 2.78594 1.29688H37.2133C38.7461 1.29688 40 2.55313 40 4.08281ZM5.9375 4.68984C5.9375 4.11406 5.47031 3.64687 4.89453 3.64687C4.31875 3.64687 3.85156 4.11406 3.85156 4.68984C3.85156 5.26562 4.31875 5.73281 4.89453 5.73281C5.47031 5.73281 5.9375 5.26562 5.9375 4.68984ZM9.98125 4.68984C9.98125 4.11406 9.51406 3.64687 8.93828 3.64687C8.3625 3.64687 7.89531 4.11406 7.89531 4.68984C7.89531 5.26562 8.3625 5.73281 8.93828 5.73281C9.51406 5.73281 9.98125 5.26562 9.98125 4.68984ZM14.025 4.68984C14.025 4.11406 13.5578 3.64687 12.982 3.64687C12.4039 3.64687 11.9367 4.11406 11.9367 4.68984C11.9367 5.26562 12.4039 5.73281 12.982 5.73281C13.5578 5.73281 14.025 5.26562 14.025 4.68984ZM36.1484 4.68984C36.1484 4.33359 35.8586 4.04297 35.5016 4.04297H17.4602C17.1039 4.04297 16.8133 4.33281 16.8133 4.68984C16.8133 5.04609 17.1031 5.33437 17.4602 5.33437H35.5023C35.8586 5.33437 36.1484 5.04609 36.1484 4.68984Z" fill="url(#paint0_linear_3127_986)"/>
</g>
<defs>
<linearGradient id="paint0_linear_3127_986" x1="20" y1="1.29687" x2="20" y2="38.7016" gradientUnits="userSpaceOnUse">
<stop stop-color="#CDCDCD"/>
<stop offset="1" stop-color="#818181"/>
</linearGradient>
<clipPath id="clip0_3127_986">
<rect width="40" height="40" fill="white"/>
</clipPath>
</defs>
</svg>
