<svg width="148" height="32" viewBox="0 0 148 32" fill="none" xmlns="http://www.w3.org/2000/svg">
<g clip-path="url(#clip0_3109_833)">
<path d="M14.275 6.88414V11.4202H0.266602V6.88414H14.275ZM3.73535 0.947266H10.1392V23.6943C10.1392 24.391 10.2281 24.9246 10.406 25.2952C10.5988 25.6658 10.8804 25.9252 11.251 26.0735C11.6216 26.2069 12.0885 26.2736 12.6518 26.2736C13.052 26.2736 13.4078 26.2588 13.7191 26.2291C14.0453 26.1847 14.3195 26.1402 14.5418 26.0957L14.5641 30.8097C14.0156 30.9876 13.4227 31.1283 12.7852 31.2321C12.1478 31.3359 11.4437 31.3878 10.6729 31.3878C9.26458 31.3878 8.03423 31.158 6.98177 30.6985C5.94406 30.2241 5.14363 29.4681 4.5803 28.4304C4.017 27.3928 3.73535 26.029 3.73535 24.3391V0.947266ZM24.7924 24.7171L29.7954 6.88414H33.8645L32.5527 13.8884L27.5496 30.9431H24.1476L24.7924 24.7171ZM22.2576 6.88414L25.8375 24.6949L26.1711 30.9431H22.1687L16.0761 6.88414H22.2576ZM38.4451 24.4058L41.9361 6.88414H48.1396L42.0472 30.9431H38.0671L38.4451 24.4058ZM34.4204 6.88414L39.4012 24.5837L40.0905 30.9431H36.6663L31.6632 13.9106L30.3958 6.88414H34.4204ZM50.3411 19.1582V18.6913C50.3411 16.9272 50.593 15.304 51.0973 13.8216C51.601 12.3245 52.3349 11.0274 53.2983 9.93043C54.2622 8.83347 55.4481 7.98114 56.856 7.37335C58.2643 6.75075 59.88 6.43948 61.7034 6.43948C63.5269 6.43948 65.1501 6.75075 66.5732 7.37335C67.9963 7.98114 69.1893 8.83347 70.1532 9.93043C71.1313 11.0274 71.8728 12.3245 72.3765 13.8216C72.8808 15.304 73.1326 16.9272 73.1326 18.6913V19.1582C73.1326 20.9074 72.8808 22.5306 72.3765 24.0278C71.8728 25.5102 71.1313 26.8072 70.1532 27.919C69.1893 29.016 68.0034 29.8684 66.5955 30.4761C65.1871 31.0839 63.5715 31.3878 61.748 31.3878C59.9246 31.3878 58.3013 31.0839 56.8783 30.4761C55.4704 29.8684 54.2769 29.016 53.2983 27.919C52.3349 26.8072 51.601 25.5102 51.0973 24.0278C50.593 22.5306 50.3411 20.9074 50.3411 19.1582ZM56.745 18.6913V19.1582C56.745 20.1662 56.8337 21.1075 57.012 21.9821C57.1894 22.8567 57.4712 23.6275 57.8569 24.2946C58.2568 24.9469 58.7757 25.4583 59.4132 25.8289C60.0508 26.1995 60.8287 26.3848 61.748 26.3848C62.6375 26.3848 63.4007 26.1995 64.0382 25.8289C64.6758 25.4583 65.1871 24.9469 65.5723 24.2946C65.958 23.6275 66.2397 22.8567 66.4176 21.9821C66.6102 21.1075 66.7065 20.1662 66.7065 19.1582V18.6913C66.7065 17.7129 66.6102 16.7938 66.4176 15.9341C66.2397 15.0594 65.9504 14.2886 65.5505 13.6216C65.1648 12.9397 64.6535 12.406 64.0159 12.0206C63.3784 11.6352 62.6076 11.4424 61.7034 11.4424C60.7993 11.4424 60.0285 11.6352 59.3909 12.0206C58.7686 12.406 58.2568 12.9397 57.8569 13.6216C57.4712 14.2886 57.1894 15.0594 57.012 15.9341C56.8337 16.7938 56.745 17.7129 56.745 18.6913ZM88.8529 6.88414V11.4202H74.8446V6.88414H88.8529ZM78.3136 0.947266H84.7174V23.6943C84.7174 24.391 84.8062 24.9246 84.984 25.2952C85.1766 25.6658 85.4584 25.9252 85.8293 26.0735C86.1998 26.2069 86.6666 26.2736 87.2301 26.2736C87.63 26.2736 87.9858 26.2588 88.2974 26.2291C88.6233 26.1847 88.8975 26.1402 89.12 26.0957L89.1423 30.8097C88.5939 30.9876 88.001 31.1283 87.3634 31.2321C86.7259 31.3359 86.0219 31.3878 85.2511 31.3878C83.8427 31.3878 82.6122 31.158 81.5601 30.6985C80.5222 30.2241 79.7215 29.4681 79.1584 28.4304C78.5954 27.3928 78.3136 26.029 78.3136 24.3391V0.947266ZM99.3704 24.7171L104.373 6.88414H108.443L107.131 13.8884L102.128 30.9431H98.7257L99.3704 24.7171ZM96.8359 6.88414L100.416 24.6949L100.749 30.9431H96.7467L90.654 6.88414H96.8359ZM113.023 24.4058L116.514 6.88414H122.718L116.625 30.9431H112.645L113.023 24.4058ZM108.998 6.88414L113.979 24.5837L114.668 30.9431H111.245L106.241 13.9106L104.974 6.88414H108.998ZM124.919 19.1582V18.6913C124.919 16.9272 125.171 15.304 125.675 13.8216C126.179 12.3245 126.913 11.0274 127.877 9.93043C128.84 8.83347 130.026 7.98114 131.434 7.37335C132.843 6.75075 134.458 6.43948 136.282 6.43948C138.105 6.43948 139.728 6.75075 141.151 7.37335C142.574 7.98114 143.768 8.83347 144.731 9.93043C145.71 11.0274 146.451 12.3245 146.955 13.8216C147.459 15.304 147.711 16.9272 147.711 18.6913V19.1582C147.711 20.9074 147.459 22.5306 146.955 24.0278C146.451 25.5102 145.71 26.8072 144.731 27.919C143.768 29.016 142.582 29.8684 141.173 30.4761C139.765 31.0839 138.149 31.3878 136.326 31.3878C134.503 31.3878 132.88 31.0839 131.457 30.4761C130.048 29.8684 128.855 29.016 127.877 27.919C126.913 26.8072 126.179 25.5102 125.675 24.0278C125.171 22.5306 124.919 20.9074 124.919 19.1582ZM131.323 18.6913V19.1582C131.323 20.1662 131.412 21.1075 131.59 21.9821C131.768 22.8567 132.049 23.6275 132.435 24.2946C132.835 24.9469 133.354 25.4583 133.991 25.8289C134.629 26.1995 135.407 26.3848 136.326 26.3848C137.216 26.3848 137.979 26.1995 138.616 25.8289C139.254 25.4583 139.765 24.9469 140.151 24.2946C140.536 23.6275 140.818 22.8567 140.995 21.9821C141.188 21.1075 141.285 20.1662 141.285 19.1582V18.6913C141.285 17.7129 141.188 16.7938 140.995 15.9341C140.818 15.0594 140.529 14.2886 140.128 13.6216C139.743 12.9397 139.232 12.406 138.594 12.0206C137.957 11.6352 137.186 11.4424 136.282 11.4424C135.378 11.4424 134.607 11.6352 133.969 12.0206C133.346 12.406 132.835 12.9397 132.435 13.6216C132.049 14.2886 131.768 15.0594 131.59 15.9341C131.412 16.7938 131.323 17.7129 131.323 18.6913Z" fill="white"/>
<path d="M136.141 28.0974C140.332 28.0974 143.73 23.8499 143.73 18.6102C143.73 13.3706 140.332 9.12305 136.141 9.12305C131.949 9.12305 128.551 13.3706 128.551 18.6102C128.551 23.8499 131.949 28.0974 136.141 28.0974Z" fill="white"/>
</g>
<defs>
<clipPath id="clip0_3109_833">
<rect width="148" height="30.8333" fill="white" transform="translate(0 0.583984)"/>
</clipPath>
</defs>
</svg>
