<svg width="24" height="24" viewBox="0 0 24 24" fill="none" xmlns="http://www.w3.org/2000/svg">
<path d="M13.828 8.91407H8.24304C7.97782 8.91407 7.72347 8.80871 7.53593 8.62117C7.3484 8.43364 7.24304 8.17928 7.24304 7.91407C7.24304 7.64885 7.3484 7.3945 7.53593 7.20696C7.72347 7.01942 7.97782 6.91407 8.24304 6.91407H16.243C16.3745 6.91367 16.5047 6.93927 16.6262 6.98938C16.7477 7.0395 16.8581 7.11314 16.951 7.20608C17.044 7.29901 17.1176 7.40941 17.1677 7.53092C17.2178 7.65242 17.2434 7.78263 17.243 7.91407V15.9141C17.243 16.1793 17.1377 16.4336 16.9501 16.6212C16.7626 16.8087 16.5083 16.9141 16.243 16.9141C15.9778 16.9141 15.7235 16.8087 15.5359 16.6212C15.3484 16.4336 15.243 16.1793 15.243 15.9141V10.3281L8.46404 17.1071C8.2764 17.2946 8.02196 17.3999 7.75668 17.3998C7.49141 17.3997 7.23705 17.2942 7.04954 17.1066C6.86203 16.9189 6.75674 16.6645 6.75684 16.3992C6.75693 16.1339 6.8624 15.8796 7.05004 15.6921L13.828 8.91407Z" fill="white"/>
</svg>
