<svg width="25" height="24" viewBox="0 0 25 24" fill="none" xmlns="http://www.w3.org/2000/svg">
<path d="M10.9862 16.7294C10.855 16.7297 10.7249 16.704 10.6036 16.6539C10.4823 16.6038 10.3721 16.5302 10.2792 16.4374L6.03723 12.1944C5.94166 12.1022 5.8654 11.9919 5.81291 11.87C5.76041 11.748 5.73274 11.6168 5.73149 11.484C5.73024 11.3512 5.75545 11.2196 5.80565 11.0966C5.85584 10.9737 5.93001 10.862 6.02384 10.768C6.11766 10.6741 6.22926 10.5997 6.35212 10.5494C6.47498 10.499 6.60664 10.4736 6.73942 10.4747C6.8722 10.4757 7.00344 10.5032 7.12548 10.5555C7.24752 10.6079 7.35792 10.684 7.45023 10.7794L10.9852 14.3144L17.3502 7.95141C17.5377 7.76377 17.7921 7.6583 18.0574 7.6582C18.3226 7.65811 18.5771 7.7634 18.7647 7.95091C18.9524 8.13841 19.0578 8.39278 19.0579 8.65805C19.058 8.92332 18.9527 9.17777 18.7652 9.36541L11.6932 16.4374C11.6004 16.5302 11.4902 16.6038 11.3688 16.6539C11.2475 16.704 11.1175 16.7297 10.9862 16.7294Z" fill="#B3B3B3"/>
</svg>
