<svg width="938" height="982" viewBox="0 0 938 982" fill="none" xmlns="http://www.w3.org/2000/svg">
<g clip-path="url(#clip0_3226_143)">
<path d="M916.784 263.519C882.357 434.846 794.576 590.875 666.022 709.246C537.467 827.616 374.739 902.251 201.16 922.452" stroke="#1F1F1F" stroke-width="10"/>
<path d="M396.25 600.63C290.633 661.608 168.423 687.584 47.1348 674.836" stroke="#1A1A1A" stroke-width="10"/>
<path d="M496.063 -40.9252C518.381 20.394 525.87 86.1249 517.918 150.893C509.965 215.661 486.797 277.628 450.307 331.726" stroke="#141414" stroke-width="20"/>
<path d="M210.25 278.468C182.165 294.683 150.641 304.021 118.255 305.718C85.8694 307.416 53.5419 301.424 23.9156 288.234C-5.7107 275.043 -31.7946 255.028 -52.2035 229.825C-72.6124 204.622 -86.7668 174.947 -93.5093 143.226" stroke="#141414" stroke-width="10"/>
<path d="M245.058 216.488C227.306 237.644 204.799 254.298 179.378 265.088C153.957 275.879 126.342 280.5 98.7926 278.574" stroke="#292929" stroke-width="8"/>
</g>
<defs>
<clipPath id="clip0_3226_143">
<rect width="938" height="982" fill="white"/>
</clipPath>
</defs>
</svg>
