<svg width="1512" height="982" viewBox="0 0 1512 982" fill="none" xmlns="http://www.w3.org/2000/svg">
<g clip-path="url(#clip0_3396_676)">
<rect x="1311" y="247" width="121" height="121" fill="white" fill-opacity="0.02"/>
<rect x="1064" y="493" width="122" height="122" fill="white" fill-opacity="0.02"/>
<path fill-rule="evenodd" clip-rule="evenodd" d="M-43.0385 0.961538H78.1154V122.115H-43.0385V0.961538ZM-44 0H-43.0385H78.1154H79.0769H80.0385H201.192H202.154H203.115H324.269H325.231H326.192H447.346H448.308H449.269H570.423H571.385H572.346H693.5H694.462H695.423H816.577H817.538H818.5H939.654H940.615H941.577H1062.73H1063.69H1064.65H1185.81H1186.77H1187.73H1308.88H1309.85H1310.81H1431.96H1432.92H1433.88H1555.04H1556V0.961538V122.115V123.077V124.038V245.192V246.154V247.115V368.269V369.231V370.192V491.346V492.308V493.269V614.423V615.385V616.346V737.5V738.462V739.423V860.577V861.538V862.5V983.654V984.615H1555.04H1433.88H1432.92H1431.96H1310.81H1309.85H1308.88H1187.73H1186.77H1185.81H1064.65H1063.69H1062.73H941.577H940.615H939.654H818.5H817.538H816.577H695.423H694.462H693.5H572.346H571.385H570.423H449.269H448.308H447.346H326.192H325.231H324.269H203.115H202.154H201.192H80.0385H79.0769H78.1154H-43.0385H-44V983.654V862.5V861.538V860.577V739.423V738.462V737.5V616.346V615.385V614.423V493.269V492.308V491.346V370.192V369.231V368.269V247.115V246.154V245.192V124.038V123.077V122.115V0.961538V0ZM-43.0385 124.038H78.1154V245.192H-43.0385V124.038ZM78.1154 247.115H-43.0385V368.269H78.1154V247.115ZM-43.0385 370.192H78.1154V491.346H-43.0385V370.192ZM78.1154 493.269H-43.0385V614.423H78.1154V493.269ZM-43.0385 616.346H78.1154V737.5H-43.0385V616.346ZM78.1154 739.423H-43.0385V860.577H78.1154V739.423ZM-43.0385 862.5H78.1154V983.654H-43.0385V862.5ZM201.192 0.961538H80.0385V122.115H201.192V0.961538ZM80.0385 124.038H201.192V245.192H80.0385V124.038ZM201.192 247.115H80.0385V368.269H201.192V247.115ZM80.0385 370.192H201.192V491.346H80.0385V370.192ZM201.192 493.269H80.0385V614.423H201.192V493.269ZM80.0385 616.346H201.192V737.5H80.0385V616.346ZM201.192 739.423H80.0385V860.577H201.192V739.423ZM80.0385 862.5H201.192V983.654H80.0385V862.5ZM324.269 0.961538H203.115V122.115H324.269V0.961538ZM203.115 124.038H324.269V245.192H203.115V124.038ZM324.269 247.115H203.115V368.269H324.269V247.115ZM203.115 370.192H324.269V491.346H203.115V370.192ZM324.269 493.269H203.115V614.423H324.269V493.269ZM203.115 616.346H324.269V737.5H203.115V616.346ZM324.269 739.423H203.115V860.577H324.269V739.423ZM203.115 862.5H324.269V983.654H203.115V862.5ZM447.346 0.961538H326.192V122.115H447.346V0.961538ZM326.192 124.038H447.346V245.192H326.192V124.038ZM447.346 247.115H326.192V368.269H447.346V247.115ZM326.192 370.192H447.346V491.346H326.192V370.192ZM447.346 493.269H326.192V614.423H447.346V493.269ZM326.192 616.346H447.346V737.5H326.192V616.346ZM447.346 739.423H326.192V860.577H447.346V739.423ZM326.192 862.5H447.346V983.654H326.192V862.5ZM570.423 0.961538H449.269V122.115H570.423V0.961538ZM449.269 124.038H570.423V245.192H449.269V124.038ZM570.423 247.115H449.269V368.269H570.423V247.115ZM449.269 370.192H570.423V491.346H449.269V370.192ZM570.423 493.269H449.269V614.423H570.423V493.269ZM449.269 616.346H570.423V737.5H449.269V616.346ZM570.423 739.423H449.269V860.577H570.423V739.423ZM449.269 862.5H570.423V983.654H449.269V862.5ZM693.5 0.961538H572.346V122.115H693.5V0.961538ZM572.346 124.038H693.5V245.192H572.346V124.038ZM693.5 247.115H572.346V368.269H693.5V247.115ZM572.346 370.192H693.5V491.346H572.346V370.192ZM693.5 493.269H572.346V614.423H693.5V493.269ZM572.346 616.346H693.5V737.5H572.346V616.346ZM693.5 739.423H572.346V860.577H693.5V739.423ZM572.346 862.5H693.5V983.654H572.346V862.5ZM816.577 0.961538H695.423V122.115H816.577V0.961538ZM695.423 124.038H816.577V245.192H695.423V124.038ZM816.577 247.115H695.423V368.269H816.577V247.115ZM695.423 370.192H816.577V491.346H695.423V370.192ZM816.577 493.269H695.423V614.423H816.577V493.269ZM695.423 616.346H816.577V737.5H695.423V616.346ZM816.577 739.423H695.423V860.577H816.577V739.423ZM695.423 862.5H816.577V983.654H695.423V862.5ZM939.654 0.961538H818.5V122.115H939.654V0.961538ZM818.5 124.038H939.654V245.192H818.5V124.038ZM939.654 247.115H818.5V368.269H939.654V247.115ZM818.5 370.192H939.654V491.346H818.5V370.192ZM939.654 493.269H818.5V614.423H939.654V493.269ZM818.5 616.346H939.654V737.5H818.5V616.346ZM939.654 739.423H818.5V860.577H939.654V739.423ZM818.5 862.5H939.654V983.654H818.5V862.5ZM1062.73 0.961538H941.577V122.115H1062.73V0.961538ZM941.577 124.038H1062.73V245.192H941.577V124.038ZM1062.73 247.115H941.577V368.269H1062.73V247.115ZM941.577 370.192H1062.73V491.346H941.577V370.192ZM1062.73 493.269H941.577V614.423H1062.73V493.269ZM941.577 616.346H1062.73V737.5H941.577V616.346ZM1062.73 739.423H941.577V860.577H1062.73V739.423ZM941.577 862.5H1062.73V983.654H941.577V862.5ZM1185.81 0.961538H1064.65V122.115H1185.81V0.961538ZM1064.65 124.038H1185.81V245.192H1064.65V124.038ZM1185.81 247.115H1064.65V368.269H1185.81V247.115ZM1064.65 370.192H1185.81V491.346H1064.65V370.192ZM1185.81 493.269H1064.65V614.423H1185.81V493.269ZM1064.65 616.346H1185.81V737.5H1064.65V616.346ZM1185.81 739.423H1064.65V860.577H1185.81V739.423ZM1064.65 862.5H1185.81V983.654H1064.65V862.5ZM1308.88 0.961538H1187.73V122.115H1308.88V0.961538ZM1187.73 124.038H1308.88V245.192H1187.73V124.038ZM1308.88 247.115H1187.73V368.269H1308.88V247.115ZM1187.73 370.192H1308.88V491.346H1187.73V370.192ZM1308.88 493.269H1187.73V614.423H1308.88V493.269ZM1187.73 616.346H1308.88V737.5H1187.73V616.346ZM1308.88 739.423H1187.73V860.577H1308.88V739.423ZM1187.73 862.5H1308.88V983.654H1187.73V862.5ZM1431.96 0.961538H1310.81V122.115H1431.96V0.961538ZM1310.81 124.038H1431.96V245.192H1310.81V124.038ZM1431.96 247.115H1310.81V368.269H1431.96V247.115ZM1310.81 370.192H1431.96V491.346H1310.81V370.192ZM1431.96 493.269H1310.81V614.423H1431.96V493.269ZM1310.81 616.346H1431.96V737.5H1310.81V616.346ZM1431.96 739.423H1310.81V860.577H1431.96V739.423ZM1310.81 862.5H1431.96V983.654H1310.81V862.5ZM1555.04 0.961538H1433.88V122.115H1555.04V0.961538ZM1433.88 124.038H1555.04V245.192H1433.88V124.038ZM1555.04 247.115H1433.88V368.269H1555.04V247.115ZM1433.88 370.192H1555.04V491.346H1433.88V370.192ZM1555.04 493.269H1433.88V614.423H1555.04V493.269ZM1433.88 616.346H1555.04V737.5H1433.88V616.346ZM1555.04 739.423H1433.88V860.577H1555.04V739.423ZM1433.88 862.5H1555.04V983.654H1433.88V862.5Z" fill="url(#paint0_radial_3396_676)"/>
</g>
<defs>
<radialGradient id="paint0_radial_3396_676" cx="0" cy="0" r="1" gradientUnits="userSpaceOnUse" gradientTransform="translate(817.538) rotate(90) scale(864.5 3564.87)">
<stop stop-color="#141414"/>
<stop offset="1" stop-color="#1F1F1F" stop-opacity="0"/>
</radialGradient>
<clipPath id="clip0_3396_676">
<rect width="1512" height="982" fill="white"/>
</clipPath>
</defs>
</svg>
