<svg width="229" height="64" viewBox="0 0 229 64" fill="none" xmlns="http://www.w3.org/2000/svg">
<path fill-rule="evenodd" clip-rule="evenodd" d="M44.2418 37.6853V20.4686C43.4777 23.7393 41.3526 25.7344 37.867 26.4539L26.8775 28.7002C25.5802 28.969 24.9314 29.8329 24.9314 31.292V37.6853H44.2418ZM35.3406 10.7383H16.3223C13.4757 10.7383 11.168 13.046 11.168 15.8926V43.8121H17.8913V31.4648C17.8913 26.3579 20.1235 23.3436 24.588 22.4221L35.5775 20.1758C36.8749 19.907 37.5236 19.0431 37.5236 17.5839V13.2066C37.5236 11.6515 36.7959 10.8288 35.3406 10.7383Z" fill="white"/>
<path d="M60.9932 36.1568V10.7383H66.6204V18.6218H75.2299V23.4953H66.6204V36.6346C66.6204 38.0998 67.2497 38.6577 68.7247 38.6577H75.5972V41.6645L73.02 43.8121H68.5099C63.4436 43.8121 60.9932 41.1896 60.9932 36.1568Z" fill="white"/>
<path d="M78.5527 19.4811L79.1777 18.6211H83.8914L88.1721 38.8317H88.6531L93.7993 18.6211H100.1L105.246 38.8317H105.727L110.056 18.6211H114.721L115.347 19.4811L110.008 43.7053H101.399L96.9255 25.2146L92.4528 43.7053H83.9395L78.5527 19.4811Z" fill="white"/>
<path d="M119.653 36.1561V26.1702C119.653 21.1375 122.186 18.6211 127.253 18.6211H133.505C138.539 18.6211 141.056 21.1375 141.056 26.1702V33.2415H125.281V36.6339C125.281 38.0991 126.018 38.8317 127.493 38.8317H140.095V41.8418L137.545 43.7053H127.253C122.186 43.7053 119.653 41.1888 119.653 36.1561ZM125.281 28.8937H135.429V25.6924C135.429 24.2272 134.692 23.4946 133.217 23.4946H127.493C126.018 23.4946 125.281 24.2272 125.281 25.6924V28.8937Z" fill="white"/>
<path d="M147.892 43.7053V18.6211H161.744C166.778 18.6211 169.295 21.1375 169.295 26.1702V43.7053H163.667V25.6924C163.667 24.2272 162.93 23.4946 161.455 23.4946H153.519V43.7053H147.892Z" fill="white"/>
<path d="M193.482 19.4811L194.06 18.6211H198.918L205.266 38.8317H205.988L212.337 18.6211H217.194L217.771 19.4811L206.757 53.261H201.899L201.322 52.4011L204.353 43.7053H201.418L193.482 19.4811Z" fill="white"/>
<path d="M176.107 36.1568V10.7383H181.735V18.6218H190.344V23.4953H181.735V36.6346C181.735 38.0998 182.364 38.6577 183.839 38.6577H190.711V41.6645L188.134 43.8121H183.624C178.558 43.8121 176.107 41.1896 176.107 36.1568Z" fill="white"/>
</svg>
