<svg width="48" height="48" viewBox="0 0 48 48" fill="none" xmlns="http://www.w3.org/2000/svg">
<path fill-rule="evenodd" clip-rule="evenodd" d="M4.3125 2.74219H43.6875C45.2365 2.74219 46.5 4.00566 46.5 5.55469V10.3468H1.5V5.55469C1.5 4.00566 2.76337 2.74219 4.3125 2.74219ZM33.0042 34.7645V27.8491H8.29163C7.55634 27.8491 6.95531 28.45 6.95531 29.1854V33.4282C6.95531 34.1635 7.55653 34.7646 8.29163 34.7646H33.0042V34.7645ZM34.1292 27.8491V34.7645H39.7084C40.4434 34.7645 41.0447 34.1632 41.0447 33.4282V29.1853C41.0447 28.4502 40.4436 27.849 39.7084 27.849L34.1292 27.8491ZM37.2372 29.8343C37.8575 29.8343 38.36 30.3368 38.36 30.9571C38.36 31.5773 37.8575 32.0798 37.2372 32.0798C36.617 32.0798 36.1145 31.5773 36.1145 30.9571C36.1145 30.3368 36.617 29.8343 37.2372 29.8343ZM39.1741 32.0986L40.0195 32.944C40.2392 33.1637 40.2392 33.5198 40.0195 33.7394C39.7999 33.959 39.4437 33.959 39.2242 33.7394L38.3787 32.894C36.9001 33.7669 34.9895 32.7097 34.9895 30.9571C34.9895 29.7158 35.996 28.7093 37.2372 28.7093C38.9898 28.7093 40.0471 30.62 39.1741 32.0986ZM24.5624 17.3561V23.4386C26.2883 23.4047 27.9536 23.2153 29.5302 22.8902C28.5648 20.3444 26.8613 17.7412 24.5624 17.3561ZM30.6336 22.6372C29.9583 20.811 28.9804 19.036 27.6596 17.7922C30.1026 18.4521 32.2832 19.7573 34.0036 21.5156C32.9432 21.9613 31.8155 22.3382 30.6336 22.6372ZM34.7963 22.3968C33.6078 22.92 32.3344 23.3596 30.9936 23.7034C31.284 24.6489 31.5221 25.6609 31.7001 26.724H37.2301C36.6787 25.1316 35.8479 23.6695 34.7963 22.3967V22.3968ZM31.7001 35.8896C31.5221 36.9528 31.2841 37.9646 30.9936 38.9103C32.3344 39.2542 33.6078 39.6937 34.7963 40.217C35.8479 38.9441 36.6787 37.4821 37.2301 35.8897H31.7L31.7001 35.8896ZM34.0036 41.098C32.2812 42.857 30.1046 44.161 27.6596 44.8215C28.9802 43.5778 29.9585 41.8026 30.6336 39.9765C31.8155 40.2755 32.9432 40.6523 34.0036 41.098ZM20.3402 44.8215C19.0194 43.5777 18.0415 41.8027 17.3663 39.9765C16.1843 40.2755 15.0566 40.6523 13.9962 41.098C15.7166 42.8563 17.8973 44.1616 20.3402 44.8215ZM13.2034 40.217C12.1517 38.9441 11.3211 37.4821 10.7695 35.8897H16.2997C16.4776 36.9529 16.7156 37.9647 17.0062 38.9104C15.6653 39.2542 14.3919 39.6938 13.2034 40.2171V40.217ZM16.2997 26.7242C16.4776 25.661 16.7156 24.6491 17.0062 23.7036C15.6653 23.3597 14.3919 22.9201 13.2034 22.397C12.1518 23.6698 11.3211 25.1318 10.7696 26.7243H16.2997L16.2997 26.7242ZM13.9961 21.5158C15.7185 19.7569 17.8952 18.4528 20.3401 17.7923C19.0194 19.0359 18.0412 20.8113 17.3662 22.6372C16.1842 22.3383 15.0565 21.9615 13.9961 21.5158ZM29.8983 23.9598C28.1926 24.3202 26.4145 24.5286 24.5623 24.5639V26.7242H30.5605C30.3904 25.75 30.1674 24.8242 29.8983 23.9598ZM24.5623 35.8897V38.0499C26.4143 38.0854 28.1928 38.2937 29.8983 38.6542C30.1674 37.7896 30.3904 36.8638 30.5605 35.8897H24.5623ZM29.5301 39.7236C27.9536 39.3984 26.2882 39.2091 24.5623 39.1751V45.2576C26.8612 44.8726 28.5647 42.2692 29.5301 39.7236ZM23.4373 45.2576C21.1384 44.8725 19.4349 42.2693 18.4695 39.7236C20.046 39.3984 21.7114 39.2091 23.4373 39.1751V45.2576ZM18.1013 38.6542C19.8068 38.2937 21.5853 38.0854 23.4373 38.0499V35.8897H17.439C17.6092 36.8638 17.8322 37.7897 18.1013 38.6542ZM23.4373 26.7242V24.5639C21.5851 24.5285 19.8069 24.3202 18.1013 23.9598C17.8322 24.8242 17.6092 25.75 17.4391 26.7242H23.4373ZM18.4695 22.8904C20.046 23.2155 21.7114 23.4049 23.4373 23.4388V17.3563C21.1385 17.7414 19.4349 20.3446 18.4695 22.8904ZM31.2247 8.05406H42.034C42.7124 8.05406 43.2623 7.50412 43.2623 6.82575C43.2623 6.14737 42.7124 5.59744 42.034 5.59744H31.2247C30.5463 5.59744 29.9963 6.14737 29.9963 6.82575C29.9963 7.50412 30.5463 8.05406 31.2247 8.05406ZM16.7754 5.59744C16.0971 5.59744 15.5471 6.14737 15.5471 6.82575C15.5471 7.50412 16.0971 8.05406 16.7754 8.05406C17.4538 8.05406 18.0037 7.50412 18.0037 6.82575C18.0037 6.14737 17.4538 5.59744 16.7754 5.59744ZM11.3708 5.59744C10.6924 5.59744 10.1424 6.14737 10.1424 6.82575C10.1424 7.50412 10.6924 8.05406 11.3708 8.05406C12.0491 8.05406 12.5991 7.50412 12.5991 6.82575C12.5991 6.14737 12.0491 5.59744 11.3708 5.59744ZM5.96606 5.59744C5.28769 5.59744 4.73775 6.14737 4.73775 6.82575C4.73775 7.50412 5.28769 8.05406 5.96606 8.05406C6.64444 8.05406 7.19437 7.50412 7.19437 6.82575C7.19437 6.14737 6.64444 5.59744 5.96606 5.59744ZM46.5 11.4718V36.1309C46.5 37.68 45.2366 38.9434 43.6875 38.9434H37.0556C37.616 37.9874 38.0743 36.9645 38.4158 35.8896H39.7084C41.0644 35.8896 42.1697 34.7842 42.1697 33.4282V29.1854C42.1697 27.8294 41.0646 26.7241 39.7084 26.7241H38.4158C36.4505 20.5369 30.6759 16.184 24 16.184C17.3241 16.184 11.5495 20.5369 9.58425 26.7241H8.29163C6.93534 26.7241 5.83031 27.8291 5.83031 29.1854V33.4282C5.83031 34.7844 6.93553 35.8896 8.29163 35.8896H9.58416C9.92559 36.9645 10.3839 37.9875 10.9443 38.9434H4.3125C2.76347 38.9434 1.5 37.68 1.5 36.1309V11.4718H46.5Z" fill="url(#paint0_linear_3391_346)"/>
<defs>
<linearGradient id="paint0_linear_3391_346" x1="2" y1="3" x2="47" y2="45" gradientUnits="userSpaceOnUse">
<stop stop-color="#D6D6D6"/>
<stop offset="1" stop-color="#818181"/>
</linearGradient>
</defs>
</svg>
